<svg width="21" height="21" viewBox="0 0 21 21" fill="none" xmlns="http://www.w3.org/2000/svg">
<path d="M1 20C1 17 2.85 14.64 6.08 14C8.5 13.52 11 12 12 11M10.0002 19C8.24428 19.0053 6.55048 18.3505 5.25474 17.1654C3.95901 15.9803 3.15599 14.3515 3.00496 12.6021C2.85393 10.8527 3.36591 9.11036 4.43937 7.72074C5.51283 6.33112 7.06935 5.3957 8.80022 5.1C14.5002 4 16.0002 3.48 18.0002 1C19.0002 3 20.0002 5.18 20.0002 9C20.0002 14.5 15.2202 19 10.0002 19Z" stroke="white" stroke-width="2" stroke-linecap="round" stroke-linejoin="round"/>
</svg>
