<svg width="24.000000" height="24.000000" viewBox="0 0 24 24" fill="none" xmlns="http://www.w3.org/2000/svg" xmlns:xlink="http://www.w3.org/1999/xlink">
	<desc>
			Created with Pixso.
	</desc>
	<defs>
		<clipPath id="clip96_5116">
			<rect id="rocket" width="24.000000" height="24.000000" fill="white" fill-opacity="0"/>
		</clipPath>
	</defs>
	<g clip-path="url(#clip96_5116)">
		<path id="Vector" d="M2.5 21.5C2.5 21.5 6.24023 21 7.5 19.5C8.20996 18.6602 8.2002 17.3701 7.41016 16.5898C7.02148 16.2188 6.50977 16.0049 5.97266 15.9883C5.43555 15.9717 4.91113 16.1543 4.5 16.5C3 17.7598 2.5 21.5 2.5 21.5ZM16 13C16 13 17.0801 16.3799 16 18C15.0303 19.4502 12 20 12 20L12 15L9 12L4 12C4 12 4.5498 8.9707 6 8C7.62012 6.91992 11 8 11 8M9 12C9.53223 10.6201 10.2021 9.2959 11 8.0498C12.165 6.1875 13.7881 4.65332 15.7129 3.59473C17.6387 2.53516 19.8027 1.98633 22 2C22 4.7207 21.2197 9.5 16 13C14.7373 13.7988 13.3965 14.4688 12 15" stroke="#FFFFFF" stroke-opacity="1.000000" stroke-width="2.000000" stroke-linejoin="round"/>
	</g>
</svg>
